<svg width="137" height="136" viewBox="0 0 137 136" fill="none" xmlns="http://www.w3.org/2000/svg">
<path d="M68.5 132C104.091 132 133 103.377 133 68C133 32.6225 104.091 4 68.5 4C32.909 4 4 32.6225 4 68C4 103.377 32.909 132 68.5 132Z" stroke="white" stroke-width="8"/>
<path d="M46.22 80.252C43.82 80.252 41.612 79.688 39.596 78.56C37.604 77.432 36.02 75.872 34.844 73.88C33.668 71.888 33.08 69.644 33.08 67.148C33.08 64.652 33.668 62.408 34.844 60.416C36.02 58.424 37.604 56.876 39.596 55.772C41.612 54.644 43.82 54.08 46.22 54.08C48.62 54.08 50.816 54.644 52.808 55.772C54.8 56.876 56.372 58.424 57.524 60.416C58.7 62.408 59.288 64.652 59.288 67.148C59.288 69.644 58.7 71.888 57.524 73.88C56.372 75.872 54.788 77.432 52.772 78.56C50.78 79.688 48.596 80.252 46.22 80.252ZM46.22 72.8C47.804 72.8 49.028 72.296 49.892 71.288C50.756 70.256 51.188 68.876 51.188 67.148C51.188 65.396 50.756 64.016 49.892 63.008C49.028 61.976 47.804 61.46 46.22 61.46C44.612 61.46 43.376 61.976 42.512 63.008C41.648 64.016 41.216 65.396 41.216 67.148C41.216 68.876 41.648 70.256 42.512 71.288C43.376 72.296 44.612 72.8 46.22 72.8ZM78.5151 76.148H70.0191L68.7591 80H60.3711L69.6951 54.512H78.9111L88.1991 80H79.7751L78.5151 76.148ZM76.5711 70.136L74.2671 63.044L71.9631 70.136H76.5711ZM99.9868 80.252C96.9388 80.252 94.4188 79.544 92.4268 78.128C90.4588 76.688 89.3908 74.588 89.2228 71.828H97.7188C97.8388 73.292 98.4868 74.024 99.6628 74.024C100.095 74.024 100.455 73.928 100.743 73.736C101.055 73.52 101.211 73.196 101.211 72.764C101.211 72.164 100.887 71.684 100.239 71.324C99.5908 70.94 98.5828 70.508 97.2148 70.028C95.5828 69.452 94.2268 68.888 93.1468 68.336C92.0908 67.784 91.1788 66.98 90.4108 65.924C89.6428 64.868 89.2708 63.512 89.2948 61.856C89.2948 60.2 89.7148 58.796 90.5548 57.644C91.4188 56.468 92.5828 55.58 94.0468 54.98C95.5348 54.38 97.2028 54.08 99.0508 54.08C102.171 54.08 104.643 54.8 106.467 56.24C108.315 57.68 109.287 59.708 109.383 62.324H100.779C100.755 61.604 100.575 61.088 100.239 60.776C99.9028 60.464 99.4948 60.308 99.0148 60.308C98.6788 60.308 98.4028 60.428 98.1868 60.668C97.9708 60.884 97.8628 61.196 97.8628 61.604C97.8628 62.18 98.1748 62.66 98.7988 63.044C99.4468 63.404 100.467 63.848 101.859 64.376C103.467 64.976 104.787 65.552 105.819 66.104C106.875 66.656 107.787 67.424 108.555 68.408C109.323 69.392 109.707 70.628 109.707 72.116C109.707 73.676 109.323 75.08 108.555 76.328C107.787 77.552 106.671 78.512 105.207 79.208C103.743 79.904 102.003 80.252 99.9868 80.252Z" fill="white"/>
</svg>
