<?xml version="1.0" encoding="utf-8"?>
<!-- Generator: Adobe Illustrator 16.0.0, SVG Export Plug-In . SVG Version: 6.00 Build 0)  -->
<!DOCTYPE svg PUBLIC "-//W3C//DTD SVG 1.1//EN" "http://www.w3.org/Graphics/SVG/1.1/DTD/svg11.dtd">
<svg version="1.1" id="Layer_1" xmlns="http://www.w3.org/2000/svg" xmlns:xlink="http://www.w3.org/1999/xlink" x="0px" y="0px"
	 width="199.261px" height="149.464px" viewBox="0 0 199.261 149.464" enable-background="new 0 0 199.261 149.464"
	 xml:space="preserve">
<path fill="#FFFFFF" d="M35.905,12.667c13.601,0,24.485,10.95,24.485,24.55c0,13.604-10.885,24.414-24.485,24.414
	c-13.6,0-24.416-10.811-24.416-24.414C11.489,23.617,22.305,12.667,35.905,12.667z M35.905,50.751
	c7.481,0,13.601-6.12,13.601-13.535c0-7.479-6.119-13.666-13.601-13.666c-7.411,0-13.531,6.187-13.531,13.666
	C22.374,44.632,28.494,50.751,35.905,50.751z"/>
<path fill="#FFFFFF" d="M94.021,90.41h-9.726c-0.747,0-1.292-0.611-1.292-1.292v-7.411c0-0.684,0.545-1.292,1.292-1.292h30.197
	c0.747,0,1.292,0.608,1.292,1.292v7.411c0,0.681-0.545,1.292-1.292,1.292h-9.726v36.317c0,0.677-0.614,1.292-1.291,1.292h-8.164
	c-0.678,0-1.292-0.614-1.292-1.292V90.41z"/>
<path fill="#FFFFFF" d="M155.164,22.664h-9.726c-0.749,0-1.291-0.611-1.291-1.292v-7.414c0-0.677,0.542-1.292,1.291-1.292h30.195
	c0.749,0,1.291,0.614,1.291,1.292v7.414c0,0.681-0.542,1.292-1.291,1.292h-9.725v36.314c0,0.684-0.612,1.292-1.292,1.292h-8.16
	c-0.681,0-1.292-0.608-1.292-1.292V22.664z"/>
<path fill="#FFFFFF" d="M66.676,127.93c0,3.68-2.982,6.665-6.665,6.665h-49.16c-3.68,0-6.665-2.985-6.665-6.665V78.77
	c0-3.68,2.985-6.665,6.665-6.665h49.16c3.683,0,6.665,2.985,6.665,6.665V127.93z"/>
<path fill="#FFFFFF" d="M193.591,127.93c0,3.68-2.985,6.665-6.666,6.665h-49.159c-3.682,0-6.665-2.985-6.665-6.665V78.77
	c0-3.68,2.982-6.665,6.665-6.665h49.159c3.681,0,6.666,2.985,6.666,6.665V127.93z"/>
<path fill="#FFFFFF" d="M130.636,59.894c0,3.68-2.979,6.665-6.665,6.665H74.812c-3.68,0-6.666-2.985-6.666-6.665v-49.16
	c0-3.68,2.985-6.665,6.666-6.665h49.159c3.686,0,6.665,2.985,6.665,6.665V59.894z"/>
<path fill="#143044" d="M94.021,24.025h-9.726c-0.749,0-1.292-0.611-1.292-1.292v-7.415c0-0.677,0.543-1.291,1.292-1.291h30.194
	c0.75,0,1.292,0.614,1.292,1.291v7.415c0,0.681-0.542,1.292-1.292,1.292h-9.725v36.314c0,0.684-0.612,1.292-1.292,1.292h-8.161
	c-0.68,0-1.292-0.608-1.292-1.292V24.025z"/>
<path fill="#143044" d="M163.648,78.187c13.604,0,24.485,10.948,24.485,24.549c0,13.6-10.882,24.416-24.485,24.416
	c-13.6,0-24.413-10.815-24.413-24.416C139.235,89.135,150.048,78.187,163.648,78.187z M163.648,116.267
	c7.484,0,13.604-6.12,13.604-13.531c0-7.48-6.12-13.669-13.604-13.669c-7.412,0-13.531,6.189-13.531,13.669
	C150.117,110.147,156.237,116.267,163.648,116.267z"/>
<path fill="#143044" d="M30.566,91.093l0.032-8.707c0-0.677,0.542-1.291,1.291-1.291h8.132c0.747,0,1.292,0.614,1.292,1.291v8.707
	v36.313c0,0.683-0.615,1.292-1.292,1.292h-8.163c-0.678,0-1.292-0.609-1.292-1.292V91.093z"/>
</svg>
