<svg width="529" height="327" viewBox="0 0 529 327" fill="none" xmlns="http://www.w3.org/2000/svg">
<path d="M161.492 303.26C187.363 303.26 212.653 295.26 234.165 280.271C255.676 265.283 272.442 243.978 282.342 219.053C292.243 194.127 294.833 166.7 289.786 140.239C284.739 113.778 272.281 89.4726 253.987 70.3954C235.693 51.3182 212.385 38.3265 187.011 33.0631C161.637 27.7998 135.336 30.5011 111.433 40.8256C87.5315 51.1501 67.1021 68.634 52.7287 91.0664C38.3553 113.499 30.6836 139.872 30.6836 166.851C30.6836 203.029 44.4651 237.725 68.9963 263.307C93.5276 288.889 126.799 303.26 161.492 303.26Z" fill="#DCF6F5"/>
<path d="M119.481 253.046L117.199 260.228H115.813C115.654 260.228 115.545 260.125 115.484 259.92L114.196 255.769C114.154 255.629 114.114 255.491 114.077 255.356C114.044 255.216 114.016 255.076 113.993 254.936C113.965 255.076 113.932 255.218 113.895 255.363C113.862 255.503 113.825 255.643 113.783 255.783L112.474 259.92C112.418 260.125 112.294 260.228 112.103 260.228H110.773L108.498 253.046H109.877C110.003 253.046 110.11 253.076 110.199 253.137C110.288 253.198 110.346 253.275 110.374 253.368L111.403 257.204C111.454 257.414 111.499 257.619 111.536 257.82C111.578 258.021 111.613 258.221 111.641 258.422C111.692 258.221 111.746 258.021 111.802 257.82C111.863 257.619 111.926 257.414 111.991 257.204L113.181 253.354C113.209 253.261 113.263 253.184 113.342 253.123C113.426 253.062 113.526 253.032 113.643 253.032H114.406C114.527 253.032 114.63 253.062 114.714 253.123C114.803 253.184 114.861 253.261 114.889 253.354L116.044 257.204C116.105 257.414 116.161 257.622 116.212 257.827C116.268 258.028 116.322 258.228 116.373 258.429C116.434 258.032 116.52 257.624 116.632 257.204L117.689 253.368C117.722 253.275 117.78 253.198 117.864 253.137C117.948 253.076 118.048 253.046 118.165 253.046H119.481ZM130.719 253.046L128.437 260.228H127.051C126.893 260.228 126.783 260.125 126.722 259.92L125.434 255.769C125.392 255.629 125.353 255.491 125.315 255.356C125.283 255.216 125.255 255.076 125.231 254.936C125.203 255.076 125.171 255.218 125.133 255.363C125.101 255.503 125.063 255.643 125.021 255.783L123.712 259.92C123.656 260.125 123.533 260.228 123.341 260.228H122.011L119.736 253.046H121.115C121.241 253.046 121.349 253.076 121.437 253.137C121.526 253.198 121.584 253.275 121.612 253.368L122.641 257.204C122.693 257.414 122.737 257.619 122.774 257.82C122.816 258.021 122.851 258.221 122.879 258.422C122.931 258.221 122.984 258.021 123.04 257.82C123.101 257.619 123.164 257.414 123.229 257.204L124.419 253.354C124.447 253.261 124.501 253.184 124.58 253.123C124.664 253.062 124.765 253.032 124.881 253.032H125.644C125.766 253.032 125.868 253.062 125.952 253.123C126.041 253.184 126.099 253.261 126.127 253.354L127.282 257.204C127.343 257.414 127.399 257.622 127.45 257.827C127.506 258.028 127.56 258.228 127.611 258.429C127.672 258.032 127.758 257.624 127.87 257.204L128.927 253.368C128.96 253.275 129.018 253.198 129.102 253.137C129.186 253.076 129.287 253.046 129.403 253.046H130.719ZM141.958 253.046L139.676 260.228H138.29C138.131 260.228 138.021 260.125 137.961 259.92L136.673 255.769C136.631 255.629 136.591 255.491 136.554 255.356C136.521 255.216 136.493 255.076 136.47 254.936C136.442 255.076 136.409 255.218 136.372 255.363C136.339 255.503 136.302 255.643 136.26 255.783L134.951 259.92C134.895 260.125 134.771 260.228 134.58 260.228H133.25L130.975 253.046H132.354C132.48 253.046 132.587 253.076 132.676 253.137C132.764 253.198 132.823 253.275 132.851 253.368L133.88 257.204C133.931 257.414 133.975 257.619 134.013 257.82C134.055 258.021 134.09 258.221 134.118 258.422C134.169 258.221 134.223 258.021 134.279 257.82C134.339 257.619 134.402 257.414 134.468 257.204L135.658 253.354C135.686 253.261 135.739 253.184 135.819 253.123C135.903 253.062 136.003 253.032 136.12 253.032H136.883C137.004 253.032 137.107 253.062 137.191 253.123C137.279 253.184 137.338 253.261 137.366 253.354L138.521 257.204C138.581 257.414 138.637 257.622 138.689 257.827C138.745 258.028 138.798 258.228 138.85 258.429C138.91 258.032 138.997 257.624 139.109 257.204L140.166 253.368C140.198 253.275 140.257 253.198 140.341 253.137C140.425 253.076 140.525 253.046 140.642 253.046H141.958ZM142.388 259.276C142.388 259.131 142.414 258.994 142.465 258.863C142.521 258.732 142.596 258.62 142.689 258.527C142.782 258.434 142.894 258.359 143.025 258.303C143.156 258.247 143.296 258.219 143.445 258.219C143.594 258.219 143.732 258.247 143.858 258.303C143.989 258.359 144.101 258.434 144.194 258.527C144.292 258.62 144.369 258.732 144.425 258.863C144.481 258.994 144.509 259.131 144.509 259.276C144.509 259.425 144.481 259.565 144.425 259.696C144.369 259.822 144.292 259.932 144.194 260.025C144.101 260.118 143.989 260.191 143.858 260.242C143.732 260.298 143.594 260.326 143.445 260.326C143.296 260.326 143.156 260.298 143.025 260.242C142.894 260.191 142.782 260.118 142.689 260.025C142.596 259.932 142.521 259.822 142.465 259.696C142.414 259.565 142.388 259.425 142.388 259.276ZM149.14 252.934C149.672 252.934 150.155 253.02 150.589 253.193C151.028 253.366 151.401 253.611 151.709 253.928C152.022 254.245 152.262 254.633 152.43 255.09C152.598 255.547 152.682 256.058 152.682 256.623C152.682 257.192 152.598 257.706 152.43 258.163C152.262 258.62 152.022 259.01 151.709 259.332C151.401 259.654 151.028 259.901 150.589 260.074C150.155 260.247 149.672 260.333 149.14 260.333C148.604 260.333 148.116 260.247 147.677 260.074C147.239 259.901 146.863 259.654 146.55 259.332C146.242 259.01 146.002 258.62 145.829 258.163C145.661 257.706 145.577 257.192 145.577 256.623C145.577 256.058 145.661 255.547 145.829 255.09C146.002 254.633 146.242 254.245 146.55 253.928C146.863 253.611 147.239 253.366 147.677 253.193C148.116 253.02 148.604 252.934 149.14 252.934ZM149.14 259.003C149.738 259.003 150.179 258.802 150.463 258.401C150.753 258 150.897 257.412 150.897 256.637C150.897 255.862 150.753 255.272 150.463 254.866C150.179 254.46 149.738 254.257 149.14 254.257C148.534 254.257 148.083 254.462 147.789 254.873C147.5 255.279 147.355 255.867 147.355 256.637C147.355 257.407 147.5 257.995 147.789 258.401C148.083 258.802 148.534 259.003 149.14 259.003ZM165.604 260.228H163.875V254.341H160.683V258.233C160.683 258.457 160.739 258.632 160.851 258.758C160.963 258.884 161.114 258.947 161.306 258.947C161.408 258.947 161.497 258.935 161.572 258.912C161.646 258.884 161.709 258.856 161.761 258.828C161.817 258.8 161.866 258.774 161.908 258.751C161.95 258.723 161.992 258.709 162.034 258.709C162.085 258.709 162.127 258.723 162.16 258.751C162.192 258.774 162.227 258.812 162.265 258.863L162.783 259.703C162.531 259.913 162.241 260.072 161.915 260.179C161.588 260.286 161.25 260.34 160.9 260.34C160.274 260.34 159.794 260.165 159.458 259.815C159.122 259.46 158.954 258.973 158.954 258.352V254.341H156.049V258.233C156.049 258.457 156.102 258.632 156.21 258.758C156.322 258.884 156.473 258.947 156.665 258.947C156.772 258.947 156.861 258.935 156.931 258.912C157.005 258.884 157.068 258.856 157.12 258.828C157.176 258.8 157.225 258.774 157.267 258.751C157.309 258.723 157.351 258.709 157.393 258.709C157.444 258.709 157.486 258.723 157.519 258.751C157.551 258.774 157.586 258.812 157.624 258.863L158.142 259.703C157.89 259.913 157.6 260.072 157.274 260.179C156.947 260.286 156.609 260.34 156.259 260.34C155.633 260.34 155.153 260.165 154.817 259.815C154.485 259.46 154.32 258.973 154.32 258.352V254.341H153.585C153.491 254.341 153.412 254.311 153.347 254.25C153.281 254.189 153.249 254.098 153.249 253.977V253.291L154.404 253.095L154.768 251.142C154.791 251.049 154.835 250.976 154.901 250.925C154.966 250.874 155.05 250.848 155.153 250.848H156.049V253.109H159.038L159.409 251.142C159.432 251.049 159.474 250.976 159.535 250.925C159.6 250.874 159.686 250.848 159.794 250.848H160.683V253.109H165.604V260.228ZM165.877 250.925C165.877 251.074 165.846 251.217 165.786 251.352C165.725 251.483 165.643 251.597 165.541 251.695C165.443 251.793 165.324 251.872 165.184 251.933C165.048 251.989 164.904 252.017 164.75 252.017C164.6 252.017 164.46 251.989 164.33 251.933C164.199 251.872 164.085 251.793 163.987 251.695C163.889 251.597 163.809 251.483 163.749 251.352C163.693 251.217 163.665 251.074 163.665 250.925C163.665 250.771 163.693 250.629 163.749 250.498C163.809 250.363 163.889 250.246 163.987 250.148C164.085 250.045 164.199 249.966 164.33 249.91C164.46 249.849 164.6 249.819 164.75 249.819C164.904 249.819 165.048 249.849 165.184 249.91C165.324 249.966 165.443 250.045 165.541 250.148C165.643 250.246 165.725 250.363 165.786 250.498C165.846 250.629 165.877 250.771 165.877 250.925ZM169.767 260.34C169.141 260.34 168.661 260.165 168.325 259.815C167.993 259.46 167.828 258.973 167.828 258.352V254.341H167.093C166.999 254.341 166.92 254.311 166.855 254.25C166.789 254.189 166.757 254.098 166.757 253.977V253.291L167.912 253.102L168.276 251.142C168.299 251.049 168.343 250.976 168.409 250.925C168.474 250.874 168.558 250.848 168.661 250.848H169.557V253.109H171.475V254.341H169.557V258.233C169.557 258.457 169.61 258.632 169.718 258.758C169.83 258.884 169.981 258.947 170.173 258.947C170.28 258.947 170.369 258.935 170.439 258.912C170.513 258.884 170.576 258.856 170.628 258.828C170.684 258.8 170.733 258.774 170.775 258.751C170.817 258.723 170.859 258.709 170.901 258.709C170.952 258.709 170.994 258.723 171.027 258.751C171.059 258.774 171.094 258.812 171.132 258.863L171.65 259.703C171.398 259.913 171.108 260.072 170.782 260.179C170.455 260.286 170.117 260.34 169.767 260.34ZM175.705 252.934C176.237 252.934 176.72 253.02 177.154 253.193C177.593 253.366 177.966 253.611 178.274 253.928C178.587 254.245 178.827 254.633 178.995 255.09C179.163 255.547 179.247 256.058 179.247 256.623C179.247 257.192 179.163 257.706 178.995 258.163C178.827 258.62 178.587 259.01 178.274 259.332C177.966 259.654 177.593 259.901 177.154 260.074C176.72 260.247 176.237 260.333 175.705 260.333C175.168 260.333 174.681 260.247 174.242 260.074C173.803 259.901 173.428 259.654 173.115 259.332C172.807 259.01 172.567 258.62 172.394 258.163C172.226 257.706 172.142 257.192 172.142 256.623C172.142 256.058 172.226 255.547 172.394 255.09C172.567 254.633 172.807 254.245 173.115 253.928C173.428 253.611 173.803 253.366 174.242 253.193C174.681 253.02 175.168 252.934 175.705 252.934ZM175.705 259.003C176.302 259.003 176.743 258.802 177.028 258.401C177.317 258 177.462 257.412 177.462 256.637C177.462 255.862 177.317 255.272 177.028 254.866C176.743 254.46 176.302 254.257 175.705 254.257C175.098 254.257 174.648 254.462 174.354 254.873C174.065 255.279 173.92 255.867 173.92 256.637C173.92 257.407 174.065 257.995 174.354 258.401C174.648 258.802 175.098 259.003 175.705 259.003ZM180.314 259.276C180.314 259.131 180.34 258.994 180.391 258.863C180.447 258.732 180.522 258.62 180.615 258.527C180.708 258.434 180.82 258.359 180.951 258.303C181.082 258.247 181.222 258.219 181.371 258.219C181.52 258.219 181.658 258.247 181.784 258.303C181.915 258.359 182.027 258.434 182.12 258.527C182.218 258.62 182.295 258.732 182.351 258.863C182.407 258.994 182.435 259.131 182.435 259.276C182.435 259.425 182.407 259.565 182.351 259.696C182.295 259.822 182.218 259.932 182.12 260.025C182.027 260.118 181.915 260.191 181.784 260.242C181.658 260.298 181.52 260.326 181.371 260.326C181.222 260.326 181.082 260.298 180.951 260.242C180.82 260.191 180.708 260.118 180.615 260.025C180.522 259.932 180.447 259.822 180.391 259.696C180.34 259.565 180.314 259.425 180.314 259.276ZM185.68 253.046V260.228H183.944V253.046H185.68ZM185.918 250.953C185.918 251.102 185.888 251.242 185.827 251.373C185.767 251.504 185.685 251.618 185.582 251.716C185.484 251.814 185.368 251.893 185.232 251.954C185.097 252.01 184.952 252.038 184.798 252.038C184.649 252.038 184.507 252.01 184.371 251.954C184.241 251.893 184.126 251.814 184.028 251.716C183.93 251.618 183.851 251.504 183.79 251.373C183.734 251.242 183.706 251.102 183.706 250.953C183.706 250.799 183.734 250.654 183.79 250.519C183.851 250.384 183.93 250.267 184.028 250.169C184.126 250.071 184.241 249.994 184.371 249.938C184.507 249.877 184.649 249.847 184.798 249.847C184.952 249.847 185.097 249.877 185.232 249.938C185.368 249.994 185.484 250.071 185.582 250.169C185.685 250.267 185.767 250.384 185.827 250.519C185.888 250.654 185.918 250.799 185.918 250.953ZM190.621 252.934C191.153 252.934 191.636 253.02 192.07 253.193C192.509 253.366 192.882 253.611 193.19 253.928C193.503 254.245 193.743 254.633 193.911 255.09C194.079 255.547 194.163 256.058 194.163 256.623C194.163 257.192 194.079 257.706 193.911 258.163C193.743 258.62 193.503 259.01 193.19 259.332C192.882 259.654 192.509 259.901 192.07 260.074C191.636 260.247 191.153 260.333 190.621 260.333C190.084 260.333 189.597 260.247 189.158 260.074C188.719 259.901 188.344 259.654 188.031 259.332C187.723 259.01 187.483 258.62 187.31 258.163C187.142 257.706 187.058 257.192 187.058 256.623C187.058 256.058 187.142 255.547 187.31 255.09C187.483 254.633 187.723 254.245 188.031 253.928C188.344 253.611 188.719 253.366 189.158 253.193C189.597 253.02 190.084 252.934 190.621 252.934ZM190.621 259.003C191.218 259.003 191.659 258.802 191.944 258.401C192.233 258 192.378 257.412 192.378 256.637C192.378 255.862 192.233 255.272 191.944 254.866C191.659 254.46 191.218 254.257 190.621 254.257C190.014 254.257 189.564 254.462 189.27 254.873C188.981 255.279 188.836 255.867 188.836 256.637C188.836 257.407 188.981 257.995 189.27 258.401C189.564 258.802 190.014 259.003 190.621 259.003Z" fill="#00B0FF"/>
<path d="M118.723 204.842C113.639 204.842 108.552 204.756 103.47 204.874C100.519 204.943 98.6349 202.68 98.6522 199.657C98.704 188.614 98.6712 177.572 98.6747 166.517C98.6747 163.189 100.417 161.307 103.475 161.305H134.155C137.139 161.305 138.868 163.139 138.871 166.384C138.882 177.555 138.882 188.726 138.871 199.899C138.871 203.036 137.163 204.834 134.236 204.838C129.065 204.848 123.894 204.849 118.723 204.842ZM115.666 184.18H115.64C115.64 189.249 115.64 194.317 115.64 199.386C115.64 200.546 115.899 200.827 116.955 200.835C118.419 200.848 119.89 200.852 121.346 200.835C122.337 200.823 122.617 200.507 122.617 199.425C122.617 189.256 122.617 179.086 122.617 168.917C122.617 167.816 122.361 167.53 121.347 167.519C119.94 167.502 118.535 167.519 117.127 167.519C115.867 167.519 115.666 167.726 115.665 169.068C115.662 174.106 115.663 179.143 115.666 184.18Z" fill="#172F45"/>
<path d="M159.941 157.367C154.799 157.367 149.657 157.367 144.514 157.367C141.651 157.367 139.885 155.469 139.883 152.38C139.876 141.179 139.876 129.976 139.883 118.773C139.883 115.81 141.693 113.854 144.409 113.854C154.81 113.854 165.209 113.854 175.607 113.854C178.276 113.854 180.067 115.725 180.071 118.613C180.091 129.941 180.091 141.268 180.071 152.596C180.071 155.508 178.304 157.363 175.629 157.367C170.398 157.374 165.169 157.374 159.941 157.367ZM163.497 127.886C163.766 127.863 163.934 127.835 164.099 127.835C165.852 127.835 167.603 127.835 169.356 127.835C170.299 127.835 170.565 127.51 170.565 126.486C170.565 124.988 170.565 123.495 170.565 122.007C170.565 120.923 170.401 120.745 169.418 120.745C163.129 120.745 156.84 120.745 150.551 120.745C149.669 120.745 149.363 121.06 149.342 122.016C149.325 123.139 149.342 124.262 149.342 125.385C149.342 127.818 149.372 127.85 151.66 127.852H156.446V128.988C156.446 136.64 156.446 144.292 156.446 151.944C156.446 152.257 156.431 152.57 156.455 152.88C156.514 153.629 156.826 154.067 157.605 154.05C159.099 154.016 160.592 154.05 162.084 154.041C163.274 154.041 163.492 153.81 163.492 152.543V127.886H163.497Z" fill="#172F45"/>
<path d="M200.507 204.842C195.392 204.842 190.278 204.763 185.166 204.874C182.576 204.928 180.407 203.032 180.421 199.682C180.466 188.667 180.433 177.65 180.437 166.633C180.437 163.122 182.132 161.307 185.385 161.305H215.9C218.913 161.305 220.664 163.176 220.666 166.454C220.666 177.564 220.65 188.672 220.683 199.783C220.693 203.049 218.519 204.917 216.021 204.872C210.854 204.775 205.687 204.842 200.507 204.842ZM216.095 182.681C216.095 173.111 209.115 165.522 200.326 165.518C197.202 165.512 194.148 166.511 191.548 168.387C188.948 170.262 186.919 172.932 185.718 176.057C184.518 179.182 184.199 182.623 184.802 185.945C185.406 189.267 186.904 192.32 189.108 194.719C191.312 197.118 194.123 198.754 197.185 199.422C200.247 200.09 203.422 199.759 206.311 198.47C209.199 197.182 211.67 194.994 213.412 192.184C215.153 189.374 216.087 186.067 216.095 182.681Z" fill="#172F45"/>
<path d="M103.418 136.962C103.408 127.47 110.356 119.843 119.022 119.836C121.102 119.806 123.167 120.224 125.098 121.065C127.029 121.906 128.786 123.153 130.269 124.735C131.752 126.317 132.932 128.202 133.739 130.28C134.545 132.359 134.964 134.591 134.971 136.846C134.977 139.101 134.571 141.335 133.776 143.42C132.981 145.504 131.812 147.396 130.338 148.988C128.864 150.579 127.113 151.839 125.188 152.692C123.262 153.546 121.199 153.978 119.118 153.962C110.379 153.975 103.43 146.451 103.418 136.962ZM119.161 146.389C123.972 146.369 127.93 142.058 127.901 136.875C127.871 131.693 123.882 127.375 119.111 127.364C114.34 127.352 110.343 131.721 110.355 136.978C110.369 142.184 114.321 146.402 119.161 146.389Z" fill="#172F45"/>
<path d="M156.583 174.002C155.59 174.002 154.707 174.002 153.82 174.002C152.701 174.002 151.575 174.002 150.459 174.002C149.824 174.002 149.489 173.721 149.491 173.008C149.491 171.391 149.499 169.772 149.491 168.153C149.491 167.39 149.864 167.098 150.513 167.098H169.135C170.331 167.098 170.535 167.32 170.535 168.608V172.436C170.535 173.886 170.435 173.998 169.131 173.998C167.551 173.998 165.971 173.998 164.39 173.998C164.11 173.998 163.832 174.027 163.448 174.047V175.288C163.448 183.069 163.448 190.85 163.448 198.632C163.448 200.067 163.241 200.29 161.894 200.292C160.547 200.294 159.194 200.292 157.843 200.292C156.818 200.292 156.579 200.028 156.579 198.92C156.579 191.045 156.579 183.171 156.579 175.297L156.583 174.002Z" fill="#172F45"/>
<path d="M195.942 126.733C193.926 126.733 192.037 126.733 190.146 126.733C189.034 126.733 188.85 126.529 188.846 125.322C188.846 123.922 188.837 122.514 188.846 121.12C188.846 120.128 189.116 119.837 190.02 119.837C196.254 119.837 202.488 119.837 208.723 119.837C209.704 119.837 209.88 120.025 209.887 121.093C209.897 122.591 209.873 124.088 209.897 125.576C209.911 126.405 209.595 126.755 208.82 126.744C206.869 126.718 204.916 126.744 202.8 126.744V127.867C202.8 135.742 202.8 143.616 202.8 151.49C202.8 152.843 202.628 153.03 201.345 153.032C199.994 153.032 198.644 153.032 197.294 153.032C196.19 153.032 195.94 152.747 195.94 151.534C195.94 143.66 195.94 135.785 195.94 127.912L195.942 126.733Z" fill="#172F45"/>
<path d="M209.029 182.672C209.015 185.173 208.09 187.566 206.455 189.33C204.819 191.095 202.607 192.087 200.3 192.09C195.591 192.073 191.631 187.785 191.614 182.679C191.595 177.513 195.543 173.192 200.291 173.175C201.441 173.173 202.58 173.418 203.642 173.895C204.704 174.372 205.669 175.072 206.481 175.955C207.293 176.837 207.936 177.885 208.373 179.038C208.811 180.19 209.033 181.426 209.029 182.672Z" fill="#172F45"/>
<g clip-path="url(#clip0_414_133)" filter="url(#filter0_d_414_133)">
<path d="M366.492 303.26C392.363 303.26 417.653 295.26 439.165 280.271C460.676 265.283 477.442 243.978 487.342 219.053C497.243 194.127 499.833 166.7 494.786 140.239C489.739 113.778 477.281 89.4726 458.987 70.3954C440.693 51.3182 417.385 38.3265 392.011 33.0631C366.637 27.7998 340.336 30.5011 316.433 40.8256C292.531 51.1501 272.102 68.634 257.729 91.0664C243.355 113.499 235.684 139.872 235.684 166.851C235.684 203.029 249.465 237.725 273.996 263.307C298.528 288.889 331.799 303.26 366.492 303.26Z" fill="#DCF6F5"/>
<path d="M367.546 94.5367C354.607 94.1089 341.832 97.5154 330.836 104.326C319.839 111.136 311.115 121.044 305.768 132.796C300.42 144.549 298.688 157.618 300.791 170.352C302.895 183.086 308.739 194.912 317.584 204.335C326.43 213.758 337.879 220.354 350.486 223.29C363.092 226.226 376.288 225.369 388.406 220.829C400.524 216.288 411.019 208.267 418.564 197.78C426.109 187.293 430.366 174.812 430.795 161.914C431.35 144.623 425.003 127.819 413.146 115.188C401.288 102.557 384.889 95.1299 367.546 94.5367ZM363.048 229.72C349.166 229.261 335.733 224.709 324.446 216.639C313.159 208.569 304.527 197.344 299.639 184.383C294.752 171.422 293.831 157.308 296.99 143.824C300.15 130.341 307.25 118.095 317.391 108.634C327.533 99.1732 340.261 92.9228 353.966 90.6732C367.671 88.4236 381.738 90.2758 394.387 95.9956C407.036 101.715 417.7 111.046 425.029 122.807C432.359 134.569 436.025 148.233 435.565 162.071C434.926 180.621 426.933 198.161 413.338 210.843C399.743 223.525 381.658 230.314 363.048 229.72Z" fill="#AADDE1"/>
<path d="M342.007 142.024C343.709 142.089 345.391 141.647 346.84 140.757C348.29 139.866 349.441 138.567 350.148 137.023C350.855 135.479 351.086 133.76 350.811 132.085C350.537 130.41 349.769 128.854 348.606 127.615C347.442 126.375 345.936 125.509 344.277 125.125C342.619 124.74 340.883 124.856 339.291 125.457C337.699 126.058 336.322 127.117 335.334 128.5C334.347 129.883 333.794 131.527 333.746 133.223C333.685 135.478 334.518 137.667 336.064 139.314C337.611 140.962 339.746 141.935 342.007 142.024ZM342.805 118.058C345.862 118.151 348.822 119.146 351.312 120.916C353.802 122.686 355.71 125.153 356.793 128.004C357.877 130.855 358.088 133.963 357.4 136.933C356.713 139.904 355.156 142.605 352.929 144.694C350.701 146.783 347.902 148.167 344.886 148.67C341.869 149.173 338.771 148.774 335.982 147.522C333.194 146.269 330.84 144.221 329.219 141.636C327.599 139.05 326.783 136.043 326.877 132.996C326.935 130.971 327.394 128.978 328.226 127.131C329.059 125.283 330.25 123.618 331.729 122.23C333.209 120.842 334.949 119.76 336.85 119.044C338.75 118.328 340.774 117.993 342.805 118.058Z" fill="#240B37"/>
<path d="M386.63 126.233L380.497 126.03C380.39 126.027 380.284 126.004 380.186 125.96C380.088 125.917 380 125.854 379.927 125.777C379.853 125.699 379.796 125.608 379.758 125.508C379.72 125.408 379.702 125.301 379.706 125.195L379.861 120.528C379.868 120.312 379.961 120.107 380.12 119.959C380.278 119.811 380.489 119.732 380.706 119.74L399.786 120.37C400.003 120.378 400.208 120.47 400.357 120.628C400.505 120.786 400.584 120.996 400.577 121.213L400.422 125.88C400.418 125.986 400.393 126.091 400.349 126.188C400.304 126.286 400.241 126.373 400.163 126.446C400.084 126.518 399.992 126.575 399.891 126.612C399.791 126.649 399.684 126.665 399.577 126.661L393.444 126.458L392.684 149.317C392.668 149.53 392.572 149.728 392.415 149.873C392.259 150.018 392.053 150.099 391.839 150.098L386.653 149.927C386.44 149.913 386.241 149.819 386.095 149.664C385.95 149.509 385.869 149.304 385.869 149.092L386.63 126.233Z" fill="#240B37"/>
<path d="M337.403 175.651L331.27 175.448C331.053 175.441 330.848 175.348 330.699 175.19C330.551 175.032 330.472 174.822 330.479 174.606L330.634 169.939C330.638 169.832 330.662 169.727 330.707 169.63C330.751 169.533 330.815 169.445 330.893 169.373C330.972 169.3 331.064 169.244 331.164 169.207C331.265 169.17 331.372 169.153 331.479 169.157L350.559 169.788C350.666 169.791 350.772 169.815 350.87 169.858C350.968 169.902 351.056 169.964 351.129 170.042C351.203 170.119 351.26 170.211 351.298 170.311C351.336 170.411 351.354 170.517 351.35 170.624L351.195 175.291C351.188 175.507 351.095 175.711 350.936 175.859C350.778 176.007 350.567 176.086 350.35 176.079L344.217 175.876L343.457 198.728C343.443 198.942 343.348 199.142 343.191 199.289C343.034 199.435 342.827 199.517 342.612 199.516L337.426 199.345C337.213 199.329 337.013 199.234 336.868 199.077C336.723 198.921 336.642 198.716 336.642 198.503L337.403 175.651Z" fill="#240B37"/>
<path d="M388.128 194.595C389.829 194.659 391.511 194.218 392.961 193.327C394.41 192.437 395.561 191.137 396.269 189.593C396.976 188.049 397.206 186.33 396.932 184.655C396.657 182.98 395.889 181.424 394.726 180.185C393.563 178.946 392.056 178.079 390.398 177.695C388.739 177.311 387.004 177.426 385.412 178.027C383.819 178.628 382.442 179.687 381.455 181.07C380.467 182.453 379.914 184.097 379.866 185.793C379.805 188.049 380.638 190.237 382.185 191.884C383.731 193.532 385.866 194.505 388.128 194.595ZM388.925 170.628C391.982 170.721 394.943 171.716 397.433 173.486C399.923 175.257 401.83 177.723 402.914 180.574C403.997 183.426 404.209 186.533 403.521 189.504C402.833 192.474 401.277 195.175 399.049 197.264C396.822 199.353 394.023 200.737 391.006 201.24C387.99 201.744 384.891 201.344 382.103 200.092C379.314 198.84 376.961 196.791 375.34 194.206C373.719 191.62 372.904 188.614 372.997 185.566C373.055 183.542 373.514 181.549 374.347 179.701C375.18 177.854 376.37 176.188 377.85 174.801C379.33 173.413 381.07 172.33 382.97 171.614C384.871 170.898 386.894 170.563 388.925 170.628Z" fill="#240B37"/>
<path d="M318.422 251.052L316.14 258.234H314.754C314.595 258.234 314.485 258.132 314.425 257.926L313.137 253.775C313.095 253.635 313.055 253.498 313.018 253.362C312.985 253.222 312.957 253.082 312.934 252.942C312.906 253.082 312.873 253.225 312.836 253.369C312.803 253.509 312.766 253.649 312.724 253.789L311.415 257.926C311.359 258.132 311.235 258.234 311.044 258.234H309.714L307.439 251.052H308.818C308.944 251.052 309.051 251.083 309.14 251.143C309.228 251.204 309.287 251.281 309.315 251.374L310.344 255.21C310.395 255.42 310.439 255.626 310.477 255.826C310.519 256.027 310.554 256.228 310.582 256.428C310.633 256.228 310.687 256.027 310.743 255.826C310.803 255.626 310.866 255.42 310.932 255.21L312.122 251.36C312.15 251.267 312.203 251.19 312.283 251.129C312.367 251.069 312.467 251.038 312.584 251.038H313.347C313.468 251.038 313.571 251.069 313.655 251.129C313.743 251.19 313.802 251.267 313.83 251.36L314.985 255.21C315.045 255.42 315.101 255.628 315.153 255.833C315.209 256.034 315.262 256.235 315.314 256.435C315.374 256.039 315.461 255.63 315.573 255.21L316.63 251.374C316.662 251.281 316.721 251.204 316.805 251.143C316.889 251.083 316.989 251.052 317.106 251.052H318.422ZM329.66 251.052L327.378 258.234H325.992C325.833 258.234 325.723 258.132 325.663 257.926L324.375 253.775C324.333 253.635 324.293 253.498 324.256 253.362C324.223 253.222 324.195 253.082 324.172 252.942C324.144 253.082 324.111 253.225 324.074 253.369C324.041 253.509 324.004 253.649 323.962 253.789L322.653 257.926C322.597 258.132 322.473 258.234 322.282 258.234H320.952L318.677 251.052H320.056C320.182 251.052 320.289 251.083 320.378 251.143C320.466 251.204 320.525 251.281 320.553 251.374L321.582 255.21C321.633 255.42 321.677 255.626 321.715 255.826C321.757 256.027 321.792 256.228 321.82 256.428C321.871 256.228 321.925 256.027 321.981 255.826C322.041 255.626 322.104 255.42 322.17 255.21L323.36 251.36C323.388 251.267 323.441 251.19 323.521 251.129C323.605 251.069 323.705 251.038 323.822 251.038H324.585C324.706 251.038 324.809 251.069 324.893 251.129C324.981 251.19 325.04 251.267 325.068 251.36L326.223 255.21C326.283 255.42 326.339 255.628 326.391 255.833C326.447 256.034 326.5 256.235 326.552 256.435C326.612 256.039 326.699 255.63 326.811 255.21L327.868 251.374C327.9 251.281 327.959 251.204 328.043 251.143C328.127 251.083 328.227 251.052 328.344 251.052H329.66ZM340.898 251.052L338.616 258.234H337.23C337.071 258.234 336.962 258.132 336.901 257.926L335.613 253.775C335.571 253.635 335.531 253.498 335.494 253.362C335.461 253.222 335.433 253.082 335.41 252.942C335.382 253.082 335.349 253.225 335.312 253.369C335.279 253.509 335.242 253.649 335.2 253.789L333.891 257.926C333.835 258.132 333.711 258.234 333.52 258.234H332.19L329.915 251.052H331.294C331.42 251.052 331.527 251.083 331.616 251.143C331.705 251.204 331.763 251.281 331.791 251.374L332.82 255.21C332.871 255.42 332.916 255.626 332.953 255.826C332.995 256.027 333.03 256.228 333.058 256.428C333.109 256.228 333.163 256.027 333.219 255.826C333.28 255.626 333.343 255.42 333.408 255.21L334.598 251.36C334.626 251.267 334.68 251.19 334.759 251.129C334.843 251.069 334.943 251.038 335.06 251.038H335.823C335.944 251.038 336.047 251.069 336.131 251.129C336.22 251.19 336.278 251.267 336.306 251.36L337.461 255.21C337.522 255.42 337.578 255.628 337.629 255.833C337.685 256.034 337.739 256.235 337.79 256.435C337.851 256.039 337.937 255.63 338.049 255.21L339.106 251.374C339.139 251.281 339.197 251.204 339.281 251.143C339.365 251.083 339.465 251.052 339.582 251.052H340.898ZM341.329 257.282C341.329 257.138 341.354 257 341.406 256.869C341.462 256.739 341.536 256.627 341.63 256.533C341.723 256.44 341.835 256.365 341.966 256.309C342.096 256.253 342.236 256.225 342.386 256.225C342.535 256.225 342.673 256.253 342.799 256.309C342.929 256.365 343.041 256.44 343.135 256.533C343.233 256.627 343.31 256.739 343.366 256.869C343.422 257 343.45 257.138 343.45 257.282C343.45 257.432 343.422 257.572 343.366 257.702C343.31 257.828 343.233 257.938 343.135 258.031C343.041 258.125 342.929 258.197 342.799 258.248C342.673 258.304 342.535 258.332 342.386 258.332C342.236 258.332 342.096 258.304 341.966 258.248C341.835 258.197 341.723 258.125 341.63 258.031C341.536 257.938 341.462 257.828 341.406 257.702C341.354 257.572 341.329 257.432 341.329 257.282ZM348.081 250.94C348.613 250.94 349.096 251.027 349.53 251.199C349.968 251.372 350.342 251.617 350.65 251.934C350.962 252.252 351.203 252.639 351.371 253.096C351.539 253.554 351.623 254.065 351.623 254.629C351.623 255.199 351.539 255.712 351.371 256.169C351.203 256.627 350.962 257.016 350.65 257.338C350.342 257.66 349.968 257.908 349.53 258.08C349.096 258.253 348.613 258.339 348.081 258.339C347.544 258.339 347.056 258.253 346.618 258.08C346.179 257.908 345.803 257.66 345.491 257.338C345.183 257.016 344.942 256.627 344.77 256.169C344.602 255.712 344.518 255.199 344.518 254.629C344.518 254.065 344.602 253.554 344.77 253.096C344.942 252.639 345.183 252.252 345.491 251.934C345.803 251.617 346.179 251.372 346.618 251.199C347.056 251.027 347.544 250.94 348.081 250.94ZM348.081 257.009C348.678 257.009 349.119 256.809 349.404 256.407C349.693 256.006 349.838 255.418 349.838 254.643C349.838 253.869 349.693 253.278 349.404 252.872C349.119 252.466 348.678 252.263 348.081 252.263C347.474 252.263 347.024 252.469 346.73 252.879C346.44 253.285 346.296 253.873 346.296 254.643C346.296 255.413 346.44 256.001 346.73 256.407C347.024 256.809 347.474 257.009 348.081 257.009ZM355.199 258.346C354.574 258.346 354.093 258.171 353.757 257.821C353.426 257.467 353.26 256.979 353.26 256.358V252.347H352.525C352.432 252.347 352.353 252.317 352.287 252.256C352.222 252.196 352.189 252.105 352.189 251.983V251.297L353.344 251.108L353.708 249.148C353.732 249.055 353.776 248.983 353.841 248.931C353.907 248.88 353.991 248.854 354.093 248.854H354.989V251.115H357.978L358.349 249.148C358.373 249.055 358.415 248.983 358.475 248.931C358.541 248.88 358.627 248.854 358.734 248.854H359.623V251.115H361.541V252.347H359.623V256.239C359.623 256.463 359.679 256.638 359.791 256.764C359.903 256.89 360.055 256.953 360.246 256.953C360.349 256.953 360.438 256.942 360.512 256.918C360.587 256.89 360.65 256.862 360.701 256.834C360.757 256.806 360.806 256.781 360.848 256.757C360.89 256.729 360.932 256.715 360.974 256.715C361.026 256.715 361.068 256.729 361.1 256.757C361.133 256.781 361.168 256.818 361.205 256.869L361.723 257.709C361.471 257.919 361.182 258.078 360.855 258.185C360.529 258.293 360.19 258.346 359.84 258.346C359.215 258.346 358.734 258.171 358.398 257.821C358.062 257.467 357.894 256.979 357.894 256.358V252.347H354.989V256.239C354.989 256.463 355.043 256.638 355.15 256.764C355.262 256.89 355.414 256.953 355.605 256.953C355.713 256.953 355.801 256.942 355.871 256.918C355.946 256.89 356.009 256.862 356.06 256.834C356.116 256.806 356.165 256.781 356.207 256.757C356.249 256.729 356.291 256.715 356.333 256.715C356.385 256.715 356.427 256.729 356.459 256.757C356.492 256.781 356.527 256.818 356.564 256.869L357.082 257.709C356.83 257.919 356.541 258.078 356.214 258.185C355.888 258.293 355.549 258.346 355.199 258.346ZM365.772 250.94C366.304 250.94 366.787 251.027 367.221 251.199C367.66 251.372 368.033 251.617 368.341 251.934C368.654 252.252 368.894 252.639 369.062 253.096C369.23 253.554 369.314 254.065 369.314 254.629C369.314 255.199 369.23 255.712 369.062 256.169C368.894 256.627 368.654 257.016 368.341 257.338C368.033 257.66 367.66 257.908 367.221 258.08C366.787 258.253 366.304 258.339 365.772 258.339C365.236 258.339 364.748 258.253 364.309 258.08C363.871 257.908 363.495 257.66 363.182 257.338C362.874 257.016 362.634 256.627 362.461 256.169C362.293 255.712 362.209 255.199 362.209 254.629C362.209 254.065 362.293 253.554 362.461 253.096C362.634 252.639 362.874 252.252 363.182 251.934C363.495 251.617 363.871 251.372 364.309 251.199C364.748 251.027 365.236 250.94 365.772 250.94ZM365.772 257.009C366.37 257.009 366.811 256.809 367.095 256.407C367.385 256.006 367.529 255.418 367.529 254.643C367.529 253.869 367.385 253.278 367.095 252.872C366.811 252.466 366.37 252.263 365.772 252.263C365.166 252.263 364.715 252.469 364.421 252.879C364.132 253.285 363.987 253.873 363.987 254.643C363.987 255.413 364.132 256.001 364.421 256.407C364.715 256.809 365.166 257.009 365.772 257.009ZM370.633 258.234V251.052H371.69C371.914 251.052 372.061 251.157 372.131 251.367L372.243 251.899C372.369 251.759 372.5 251.631 372.635 251.514C372.775 251.398 372.922 251.297 373.076 251.213C373.235 251.129 373.403 251.064 373.58 251.017C373.762 250.966 373.961 250.94 374.175 250.94C374.628 250.94 374.999 251.064 375.288 251.311C375.582 251.554 375.802 251.878 375.946 252.284C376.058 252.046 376.198 251.843 376.366 251.675C376.534 251.503 376.719 251.363 376.919 251.255C377.12 251.148 377.332 251.069 377.556 251.017C377.785 250.966 378.014 250.94 378.242 250.94C378.639 250.94 378.991 251.001 379.299 251.122C379.607 251.244 379.866 251.421 380.076 251.654C380.286 251.888 380.445 252.172 380.552 252.508C380.664 252.844 380.72 253.229 380.72 253.663V258.234H378.991V253.663C378.991 253.206 378.891 252.863 378.69 252.634C378.49 252.401 378.196 252.284 377.808 252.284C377.631 252.284 377.465 252.315 377.311 252.375C377.162 252.436 377.029 252.525 376.912 252.641C376.8 252.753 376.712 252.896 376.646 253.068C376.581 253.241 376.548 253.439 376.548 253.663V258.234H374.812V253.663C374.812 253.183 374.714 252.833 374.518 252.613C374.327 252.394 374.045 252.284 373.671 252.284C373.419 252.284 373.184 252.347 372.964 252.473C372.75 252.595 372.549 252.763 372.362 252.977V258.234H370.633ZM386.158 255.168C385.658 255.192 385.238 255.236 384.898 255.301C384.557 255.362 384.284 255.441 384.079 255.539C383.873 255.637 383.726 255.752 383.638 255.882C383.549 256.013 383.505 256.155 383.505 256.309C383.505 256.613 383.593 256.83 383.771 256.96C383.953 257.091 384.188 257.156 384.478 257.156C384.832 257.156 385.138 257.093 385.395 256.967C385.656 256.837 385.91 256.641 386.158 256.379V255.168ZM382.196 252.053C383.022 251.297 384.016 250.919 385.178 250.919C385.598 250.919 385.973 250.989 386.305 251.129C386.636 251.265 386.916 251.456 387.145 251.703C387.373 251.946 387.546 252.238 387.663 252.578C387.784 252.919 387.845 253.292 387.845 253.698V258.234H387.061C386.897 258.234 386.771 258.211 386.683 258.164C386.594 258.113 386.524 258.013 386.473 257.863L386.319 257.345C386.137 257.509 385.959 257.653 385.787 257.779C385.614 257.901 385.434 258.003 385.248 258.087C385.061 258.171 384.86 258.234 384.646 258.276C384.436 258.323 384.202 258.346 383.946 258.346C383.642 258.346 383.362 258.307 383.106 258.227C382.849 258.143 382.627 258.02 382.441 257.856C382.254 257.693 382.109 257.49 382.007 257.247C381.904 257.005 381.853 256.722 381.853 256.4C381.853 256.218 381.883 256.039 381.944 255.861C382.004 255.679 382.102 255.507 382.238 255.343C382.378 255.18 382.557 255.026 382.777 254.881C382.996 254.737 383.264 254.611 383.582 254.503C383.904 254.396 384.277 254.31 384.702 254.244C385.126 254.174 385.612 254.132 386.158 254.118V253.698C386.158 253.218 386.055 252.863 385.85 252.634C385.644 252.401 385.348 252.284 384.961 252.284C384.681 252.284 384.447 252.317 384.261 252.382C384.079 252.448 383.918 252.522 383.778 252.606C383.638 252.686 383.509 252.758 383.393 252.823C383.281 252.889 383.155 252.921 383.015 252.921C382.893 252.921 382.791 252.891 382.707 252.83C382.623 252.765 382.555 252.69 382.504 252.606L382.196 252.053ZM391.771 258.346C391.146 258.346 390.665 258.171 390.329 257.821C389.998 257.467 389.832 256.979 389.832 256.358V252.347H389.097C389.004 252.347 388.925 252.317 388.859 252.256C388.794 252.196 388.761 252.105 388.761 251.983V251.297L389.916 251.108L390.28 249.148C390.304 249.055 390.348 248.983 390.413 248.931C390.479 248.88 390.563 248.854 390.665 248.854H391.561V251.115H393.479V252.347H391.561V256.239C391.561 256.463 391.615 256.638 391.722 256.764C391.834 256.89 391.986 256.953 392.177 256.953C392.285 256.953 392.373 256.942 392.443 256.918C392.518 256.89 392.581 256.862 392.632 256.834C392.688 256.806 392.737 256.781 392.779 256.757C392.821 256.729 392.863 256.715 392.905 256.715C392.957 256.715 392.999 256.729 393.031 256.757C393.064 256.781 393.099 256.818 393.136 256.869L393.654 257.709C393.402 257.919 393.113 258.078 392.786 258.185C392.46 258.293 392.121 258.346 391.771 258.346ZM399.159 253.817C399.159 253.593 399.126 253.383 399.061 253.187C399 252.987 398.907 252.812 398.781 252.662C398.655 252.513 398.494 252.396 398.298 252.312C398.106 252.224 397.882 252.179 397.626 252.179C397.126 252.179 396.732 252.322 396.443 252.606C396.158 252.891 395.976 253.295 395.897 253.817H399.159ZM395.862 254.86C395.89 255.229 395.955 255.549 396.058 255.819C396.16 256.085 396.296 256.307 396.464 256.484C396.632 256.657 396.83 256.788 397.059 256.876C397.292 256.96 397.549 257.002 397.829 257.002C398.109 257.002 398.349 256.97 398.55 256.904C398.755 256.839 398.932 256.767 399.082 256.687C399.236 256.608 399.369 256.536 399.481 256.47C399.597 256.405 399.709 256.372 399.817 256.372C399.961 256.372 400.069 256.426 400.139 256.533L400.636 257.163C400.444 257.387 400.23 257.576 399.992 257.73C399.754 257.88 399.504 258.001 399.243 258.094C398.986 258.183 398.722 258.246 398.452 258.283C398.186 258.321 397.927 258.339 397.675 258.339C397.175 258.339 396.711 258.258 396.282 258.094C395.852 257.926 395.479 257.681 395.162 257.359C394.844 257.033 394.595 256.631 394.413 256.155C394.231 255.675 394.14 255.119 394.14 254.489C394.14 253.999 394.219 253.54 394.378 253.11C394.536 252.676 394.763 252.301 395.057 251.983C395.355 251.661 395.717 251.407 396.142 251.22C396.571 251.034 397.054 250.94 397.591 250.94C398.043 250.94 398.461 251.013 398.844 251.157C399.226 251.302 399.555 251.514 399.831 251.794C400.106 252.07 400.321 252.41 400.475 252.816C400.633 253.218 400.713 253.677 400.713 254.195C400.713 254.457 400.685 254.634 400.629 254.727C400.573 254.816 400.465 254.86 400.307 254.86H395.862ZM401.758 257.282C401.758 257.138 401.784 257 401.835 256.869C401.891 256.739 401.966 256.627 402.059 256.533C402.153 256.44 402.265 256.365 402.395 256.309C402.526 256.253 402.666 256.225 402.815 256.225C402.965 256.225 403.102 256.253 403.228 256.309C403.359 256.365 403.471 256.44 403.564 256.533C403.662 256.627 403.739 256.739 403.795 256.869C403.851 257 403.879 257.138 403.879 257.282C403.879 257.432 403.851 257.572 403.795 257.702C403.739 257.828 403.662 257.938 403.564 258.031C403.471 258.125 403.359 258.197 403.228 258.248C403.102 258.304 402.965 258.332 402.815 258.332C402.666 258.332 402.526 258.304 402.395 258.248C402.265 258.197 402.153 258.125 402.059 258.031C401.966 257.938 401.891 257.828 401.835 257.702C401.784 257.572 401.758 257.432 401.758 257.282ZM405.333 258.234V251.052H406.39C406.614 251.052 406.761 251.157 406.831 251.367L406.943 251.899C407.069 251.759 407.199 251.631 407.335 251.514C407.475 251.398 407.622 251.297 407.776 251.213C407.934 251.129 408.102 251.064 408.28 251.017C408.462 250.966 408.66 250.94 408.875 250.94C409.327 250.94 409.698 251.064 409.988 251.311C410.282 251.554 410.501 251.878 410.646 252.284C410.758 252.046 410.898 251.843 411.066 251.675C411.234 251.503 411.418 251.363 411.619 251.255C411.819 251.148 412.032 251.069 412.256 251.017C412.484 250.966 412.713 250.94 412.942 250.94C413.338 250.94 413.691 251.001 413.999 251.122C414.307 251.244 414.566 251.421 414.776 251.654C414.986 251.888 415.144 252.172 415.252 252.508C415.364 252.844 415.42 253.229 415.42 253.663V258.234H413.691V253.663C413.691 253.206 413.59 252.863 413.39 252.634C413.189 252.401 412.895 252.284 412.508 252.284C412.33 252.284 412.165 252.315 412.011 252.375C411.861 252.436 411.728 252.525 411.612 252.641C411.5 252.753 411.411 252.896 411.346 253.068C411.28 253.241 411.248 253.439 411.248 253.663V258.234H409.512V253.663C409.512 253.183 409.414 252.833 409.218 252.613C409.026 252.394 408.744 252.284 408.371 252.284C408.119 252.284 407.883 252.347 407.664 252.473C407.449 252.595 407.248 252.763 407.062 252.977V258.234H405.333ZM421.69 253.817C421.69 253.593 421.657 253.383 421.592 253.187C421.531 252.987 421.438 252.812 421.312 252.662C421.186 252.513 421.025 252.396 420.829 252.312C420.638 252.224 420.414 252.179 420.157 252.179C419.658 252.179 419.263 252.322 418.974 252.606C418.689 252.891 418.507 253.295 418.428 253.817H421.69ZM418.393 254.86C418.421 255.229 418.486 255.549 418.589 255.819C418.692 256.085 418.827 256.307 418.995 256.484C419.163 256.657 419.361 256.788 419.59 256.876C419.823 256.96 420.08 257.002 420.36 257.002C420.64 257.002 420.88 256.97 421.081 256.904C421.286 256.839 421.464 256.767 421.613 256.687C421.767 256.608 421.9 256.536 422.012 256.47C422.129 256.405 422.241 256.372 422.348 256.372C422.493 256.372 422.6 256.426 422.67 256.533L423.167 257.163C422.976 257.387 422.761 257.576 422.523 257.73C422.285 257.88 422.035 258.001 421.774 258.094C421.517 258.183 421.254 258.246 420.983 258.283C420.717 258.321 420.458 258.339 420.206 258.339C419.707 258.339 419.242 258.258 418.813 258.094C418.384 257.926 418.01 257.681 417.693 257.359C417.376 257.033 417.126 256.631 416.944 256.155C416.762 255.675 416.671 255.119 416.671 254.489C416.671 253.999 416.75 253.54 416.909 253.11C417.068 252.676 417.294 252.301 417.588 251.983C417.887 251.661 418.248 251.407 418.673 251.22C419.102 251.034 419.585 250.94 420.122 250.94C420.575 250.94 420.992 251.013 421.375 251.157C421.758 251.302 422.087 251.514 422.362 251.794C422.637 252.07 422.852 252.41 423.006 252.816C423.165 253.218 423.244 253.677 423.244 254.195C423.244 254.457 423.216 254.634 423.16 254.727C423.104 254.816 422.997 254.86 422.838 254.86H418.393Z" fill="#00B0FF"/>
</g>
<defs>
<filter id="filter0_d_414_133" x="201" y="0" width="328" height="327" filterUnits="userSpaceOnUse" color-interpolation-filters="sRGB">
<feFlood flood-opacity="0" result="BackgroundImageFix"/>
<feColorMatrix in="SourceAlpha" type="matrix" values="0 0 0 0 0 0 0 0 0 0 0 0 0 0 0 0 0 0 127 0" result="hardAlpha"/>
<feOffset dy="4"/>
<feGaussianBlur stdDeviation="2"/>
<feComposite in2="hardAlpha" operator="out"/>
<feColorMatrix type="matrix" values="0 0 0 0 0 0 0 0 0 0 0 0 0 0 0 0 0 0 0.25 0"/>
<feBlend mode="normal" in2="BackgroundImageFix" result="effect1_dropShadow_414_133"/>
<feBlend mode="normal" in="SourceGraphic" in2="effect1_dropShadow_414_133" result="shape"/>
</filter>
<clipPath id="clip0_414_133">
<rect width="320" height="319" fill="white" transform="translate(205)"/>
</clipPath>
</defs>
</svg>
